<?xml version="1.0" encoding="UTF-8"?><svg id="Layer_2" xmlns="http://www.w3.org/2000/svg" xmlns:xlink="http://www.w3.org/1999/xlink" viewBox="0 0 600 335.72"><defs><style>.cls-1{fill:none;}.cls-2{clip-path:url(#clippath);}.cls-3{fill:#006886;}.cls-4{fill:#b1b0b0;}.cls-5{clip-path:url(#clippath-1);}.cls-6{clip-path:url(#clippath-3);}.cls-7{clip-path:url(#clippath-2);}.cls-8{opacity:0;}</style><clipPath id="clippath"><path class="cls-1" d="M361.74,119.86c-.25,.47-.42,.83-.62,1.17-17.75,31.89-35.51,63.77-53.26,95.66-9.26,16.63-18.5,33.27-27.77,49.9-8.08,14.51-16.18,29.01-24.27,43.51-3.01,5.4-6.02,10.8-9,16.21-4.73,8.6-16.39,12.1-24.91,7.1-7.21-4.23-14.16-8.91-21.19-13.44-2.17-1.4-4.42-2.75-6.34-4.44-6.1-5.4-7.66-14.99-3.59-22.31,2.2-3.95,4.73-7.72,7.16-11.53,40.08-62.75,80.16-125.49,120.24-188.23,.22-.34,.35-.73,.59-1.23,14.4,9.26,28.62,18.41,42.95,27.64Z"/></clipPath><clipPath id="clippath-1"><rect class="cls-1" x="158.03" y="-2.43" width="328.07" height="313.42" transform="translate(-26.47 76.48) rotate(-13.01)"/></clipPath><clipPath id="clippath-2"><path class="cls-1" d="M368.16,109.45c-14.75-9.06-29.24-17.96-43.86-26.93,.23-.41,.44-.79,.65-1.15,2.47-4.22,4.99-8.41,7.42-12.65,3.59-6.28,2.67-12.2-1.51-17.85-2.35-3.17-5.52-5.25-8.92-7.11-11.93-6.5-24.71-10.31-38.15-11.98-8.99-1.11-18.01-1.35-27.03-.4-3.89,.41-7.76,1.05-11.62,1.65-.85,.13-1.23,0-1.45-.88-.76-3.02-1.58-6.02-2.42-9.01-.19-.67-.06-.98,.58-1.31,8.35-4.23,16.85-8.09,25.62-11.39,8.83-3.33,17.85-5.98,27.09-7.83,14.93-2.99,29.94-3.59,44.98-.79,9.88,1.84,19.33,5.01,28.11,9.89,5.89,3.28,11.61,6.88,17.35,10.42,8.6,5.31,17.12,10.75,25.73,16.03,2.98,1.82,4.77,4.43,5.82,7.61,1.4,4.26,2.56,8.6,4.02,12.83,1.57,4.54,3.74,8.78,7.7,11.78,3.33,2.52,7.17,3.63,11.28,3.89,1.04,.07,2.1,.04,3.14-.03,1.17-.09,2.17-.42,3.06-1.4,3.94-4.32,10.37-4.46,14.92-1.8,2.71,1.59,5.22,3.54,7.83,5.3,6.41,4.33,7.92,12.61,3.86,19.33-6.54,10.83-13.18,21.6-19.85,32.35-3.93,6.34-12.83,8.18-19.23,3.99-3.41-2.23-6.86-4.47-9.97-7.08-2.75-2.3-4.5-5.41-4.49-9.17,0-.9,.39-1.87,.85-2.67,1.26-2.23,.99-4.44,.11-6.64-1.45-3.6-4.08-6.3-7.14-8.53-5.55-4.05-11.56-7.12-18.53-7.84-5.05-.52-9.97-.04-14.31,2.82-1.51,.99-2.9,2.37-3.92,3.87-2.52,3.71-4.79,7.58-7.15,11.4-.23,.37-.36,.81-.56,1.3Z"/></clipPath><clipPath id="clippath-3"><rect class="cls-1" x="158.03" y="-2.43" width="328.07" height="313.42" transform="translate(-26.47 76.48) rotate(-13.01)"/></clipPath></defs><g id="Layer_1-2"><g><g class="cls-8"><g class="cls-2"><g class="cls-5"><rect class="cls-4" x="155.8" y="90.43" width="239.57" height="247.14" transform="translate(-41.11 67.55) rotate(-13.01)"/></g></g><g class="cls-7"><g class="cls-6"><rect class="cls-4" x="240.26" y="-25.46" width="242.46" height="190.96" transform="translate(-6.48 83.2) rotate(-13.01)"/></g></g></g><g><path class="cls-3" d="M120.03,143.03c3.54-2.99,7.24-5.88,11.1-8.65,3.86-2.77,7.81-5.31,11.85-7.63,4.04-2.32,8.19-4.34,12.46-6.06,4.26-1.72,8.58-3.09,12.94-4.09-2.09-1.91-4.41-3.27-6.95-4.09-2.54-.82-5.15-1.23-7.83-1.23s-5.38,.32-8.1,.95c-2.72,.64-5.27,1.5-7.63,2.59-5.63,2.45-10.81,5.54-15.53,9.26-4.72,3.72-9.2,7.79-13.42,12.19-4.22,4.41-8.22,9.01-11.99,13.83-3.77,4.81-7.42,9.58-10.97,14.3-2,2.64-4.15,5.5-6.47,8.58-2.32,3.09-4.63,6.25-6.95,9.47-2.32,3.22-4.59,6.42-6.81,9.6s-4.24,6.18-6.06,8.99c.45-1.18,.93-2.36,1.43-3.54,.5-1.18,.98-2.36,1.43-3.54,1.09-2.54,2.52-5.65,4.29-9.33,1.77-3.68,3.63-7.56,5.58-11.65,1.95-4.09,3.97-8.26,6.06-12.53,2.09-4.27,4.04-8.24,5.86-11.92s3.43-6.95,4.84-9.81c1.41-2.86,2.43-4.92,3.06-6.2,.55-1.09,.43-1.79-.34-2.11s-1.82-.36-3.13-.14c-1.32,.23-2.66,.61-4.02,1.16-1.36,.54-2.36,1.09-2.99,1.63-4.9,4.54-9.49,9.49-13.76,14.84-4.27,5.36-8.58,10.9-12.94,16.62-4.36,5.72-8.97,11.55-13.83,17.5-4.86,5.95-10.42,11.83-16.68,17.64,1.63-2.45,3.52-5.17,5.65-8.17,2.13-3,4.31-6.13,6.54-9.4s4.38-6.61,6.47-10.01c2.09-3.41,3.93-6.72,5.52-9.94,1.59-3.22,2.81-6.31,3.68-9.26,.86-2.95,1.16-5.61,.88-7.97-.27-2.27-.88-4.45-1.84-6.54-.95-2.09-2.2-3.88-3.74-5.38-1.54-1.5-3.34-2.63-5.38-3.4-2.04-.77-4.29-1.02-6.74-.75-2.73,.36-5.45,1.18-8.17,2.45-2.73,1.27-5.31,2.79-7.76,4.56-2.45,1.77-4.72,3.7-6.81,5.79-2.09,2.09-3.9,4.22-5.45,6.4-2.09,2.82-3.81,5.83-5.18,9.06-1.36,3.22-2.09,6.56-2.18,10.01-.09,1.54,0,3.11,.27,4.7s.7,3.13,1.29,4.63c.59,1.5,1.43,2.84,2.52,4.02,1.09,1.18,2.41,2.04,3.95,2.59,0-1,.16-2.27,.48-3.81,.32-1.54,.73-3.11,1.23-4.7,.5-1.59,1-3.11,1.5-4.56,.5-1.45,.93-2.54,1.29-3.27,1.82-3.45,3.77-6.9,5.86-10.35,2.09-3.45,4.45-6.67,7.08-9.67,1.91-2.18,4.04-4.13,6.4-5.86,2.36-1.72,4.49-2.86,6.4-3.41s3.34-.41,4.29,.41,.98,2.64,.07,5.45c-1,2.91-2.34,5.92-4.02,9.06-1.68,3.13-3.5,6.25-5.45,9.33-1.95,3.09-3.93,6.09-5.92,8.99-2,2.91-3.86,5.63-5.58,8.17-2.09,3-4.16,5.97-6.2,8.92-2.04,2.95-4.06,5.92-6.06,8.92-1,1.55-1.98,3.04-2.93,4.49-.95,1.45-1.93,2.95-2.93,4.49-.73,1.18-1.32,2.47-1.77,3.88-.46,1.41-.46,2.84,0,4.29,.36,1.36,1.11,2.45,2.25,3.27s2.47,1.32,4.02,1.5c1.54,.18,3.27,0,5.17-.55,1.91-.55,3.81-1.45,5.72-2.72,2.45-1.63,4.75-3.45,6.88-5.45,2.13-2,4.24-4.09,6.33-6.27,4.63-4.9,8.92-9.74,12.87-14.51,3.95-4.77,7.83-9.56,11.65-14.37l-.95,1.77c-2.99,5.99-5.63,11.92-7.9,17.77-2.27,5.86-4.63,11.83-7.08,17.91-.55,1.36-.34,2.93,.61,4.7,.95,1.77,2.22,3.34,3.81,4.7,1.59,1.36,3.27,2.25,5.04,2.66,1.77,.41,3.16-.07,4.16-1.43,2.45-3.36,5.2-7.24,8.24-11.65,3.04-4.4,6.2-8.94,9.47-13.62,3.27-4.68,6.56-9.28,9.88-13.83,3.31-4.54,6.47-8.67,9.47-12.4,4.27-5.27,8.79-10.24,13.55-14.91,4.77-4.68,9.78-9.15,15.05-13.42Z"/><path class="cls-3" d="M595.64,183.21c-2.45,4.63-5.47,9.06-9.06,13.28-3.59,4.22-7.24,7.65-10.97,10.28-1.72,1.27-3.29,1.95-4.7,2.04-1.41,.09-2.47-.27-3.2-1.09-.73-.82-1.07-2.11-1.02-3.88,.04-1.77,.7-3.93,1.97-6.47,.73-1.54,1.79-3.59,3.2-6.13,1.41-2.54,2.93-5.22,4.56-8.04,1.63-2.81,3.32-5.67,5.04-8.58,1.72-2.9,3.29-5.54,4.7-7.9,1.41-2.36,2.54-4.31,3.41-5.86,.86-1.54,1.29-2.41,1.29-2.59,0-.91-.34-1.79-1.02-2.66-.68-.86-1.59-1.61-2.72-2.25-1.14-.63-2.41-1.07-3.81-1.29-1.41-.23-2.84-.2-4.29,.07-.64,.18-1.52,.59-2.66,1.23-1.14,.64-2.31,1.39-3.54,2.25-1.23,.86-2.43,1.75-3.61,2.66-1.18,.91-2.18,1.73-3,2.45-3.09,2.64-6.06,5.43-8.92,8.38-2.86,2.95-5.74,5.88-8.65,8.79-1.45,1.55-2.91,3.06-4.36,4.56-1.45,1.5-2.86,3.02-4.22,4.56,5.54-9.08,11.01-18.16,16.41-27.24,5.4-9.08,10.78-17.66,16.14-25.74,1.82-2.72,3.61-5.08,5.38-7.08,1.77-2,2.88-3.27,3.34-3.81-1.18-.55-2.63-1.02-4.36-1.43-1.72-.41-3.54-.55-5.45-.41-1.91,.14-3.86,.64-5.86,1.5-2,.86-3.81,2.29-5.45,4.29-1,1.18-2.34,3.09-4.02,5.72-1.68,2.64-3.4,5.43-5.17,8.38-1.77,2.95-3.41,5.72-4.9,8.31-1.5,2.59-2.52,4.38-3.06,5.38-2.91,5.27-5.86,10.51-8.85,15.73-3,5.22-5.95,10.55-8.85,16-.61,1.16-1.3,2.49-2.08,3.97-1.25,1.68-2.57,3.28-3.98,4.75-3.32,3.45-6.93,6.31-10.83,8.58-3.09,1.82-6.09,3.02-8.99,3.61-2.91,.59-5.4,.48-7.49-.34-2.09-.82-3.59-2.38-4.49-4.7-.91-2.32-.82-5.47,.27-9.47,.72-3.18,1.84-6.31,3.34-9.4,1.5-3.09,3.16-5.9,4.97-8.44,2.36-3.63,5.18-6.95,8.45-9.94,1-1,2.09-1.93,3.27-2.79,1.18-.86,2.41-1.7,3.68-2.52l.27,.55c.36,.91,.34,2.25-.07,4.02-.41,1.77-1.04,3.68-1.91,5.72-.86,2.04-1.93,4.09-3.2,6.13-1.27,2.04-2.59,3.79-3.95,5.24,2.09,.82,4.31,1.2,6.67,1.16,2.36-.04,4.4-.57,6.13-1.57,1.72-.91,3.27-2.31,4.63-4.22,1.36-1.91,2.43-4,3.2-6.27,.77-2.27,1.2-4.52,1.3-6.74,.09-2.22-.27-4.15-1.09-5.79-1-1.91-2.54-3.34-4.63-4.29-2.09-.95-10.94-3.32-24.65,3.81-2.44,1.27-4.54,3.06-6.54,4.97-3.54,3.45-6.58,7.38-9.13,11.78-1.71,2.97-3.09,6.04-4.19,9.2-1.65,3.01-3.34,5.79-5.07,8.3-1.82,2.64-3.68,5.13-5.58,7.49-2.72,3.27-5.4,5.77-8.04,7.49-2.64,1.73-4.84,2.61-6.61,2.66-1.77,.05-2.95-.79-3.54-2.52-.59-1.72-.2-4.45,1.16-8.17,1.27-3.09,2.79-6.2,4.56-9.33,1.77-3.13,3.43-6.11,4.97-8.92,1.09-2.09,2.22-4.11,3.41-6.06,1.18-1.95,2.31-3.93,3.41-5.92,1.09-1.91,2.04-3.81,2.86-5.72,.45-.91,.72-1.61,.82-2.11,.09-.5-.23-1.11-.95-1.84-2.64-2.54-5.61-4-8.92-4.36-3.32-.36-6.2,.09-8.65,1.36-2,1-4.15,2.45-6.47,4.36-2.31,1.91-4.61,4-6.88,6.27-2.27,2.27-4.43,4.54-6.47,6.81-2.04,2.27-3.79,4.22-5.24,5.86,1-2,2.2-4.22,3.61-6.67,1.41-2.45,2.75-4.54,4.02-6.26,1.36-1.91,2.38-3.5,3.06-4.77,.68-1.27,1.02-2.34,1.02-3.2s-.3-1.59-.89-2.18c-.59-.59-1.43-1.2-2.52-1.84-2.36-1.36-4.2-1.82-5.52-1.36-1.32,.46-2.38,1.27-3.2,2.45-1.72,2.36-3.29,4.82-4.7,7.35-1.41,2.54-2.88,5-4.43,7.35-3.46,5.45-6.86,11.1-10.19,16.92-1.6,2.52-3.38,5.03-5.4,7.53-3.04,3.77-6.47,6.97-10.28,9.6-4.72,3-8.99,4.9-12.8,5.72-3.81,.82-6.93,.59-9.33-.68-2.41-1.27-3.95-3.54-4.63-6.81-.68-3.27-.2-7.44,1.43-12.53,1,.18,2.02,.29,3.06,.34s2.07,.02,3.06-.07c4.36-.27,8.72-1.31,13.08-3.13,3.9-1.54,7.56-3.72,10.97-6.54,3.41-2.81,5.88-6.27,7.42-10.35,.64-1.72,1-3.45,1.09-5.17,.09-1.72-.16-3.34-.75-4.84-.59-1.5-1.52-2.81-2.79-3.95-1.27-1.14-2.86-1.93-4.77-2.38-3.81-1-7.92-1-12.33,0-4.41,1-8.29,2.41-11.65,4.22-3.36,1.82-6.49,4.2-9.4,7.15-2.91,2.95-5.45,6.2-7.63,9.74-2.18,3.54-3.93,7.24-5.24,11.1-.08,.23-.13,.46-.21,.69-.16,.2-.3,.41-.47,.6-1.14,1.27-2.38,2.36-3.75,3.27-1.36,.91-2.81,1.61-4.36,2.11s-3.13,.66-4.77,.48c2.36-3.81,4.13-7.81,5.31-11.99,.54-2,.98-4.11,1.29-6.33,.32-2.22,.39-4.43,.2-6.61-.18-2.18-.64-4.29-1.36-6.33-.73-2.04-1.86-3.88-3.4-5.52-1.55-1.63-3.25-2.73-5.11-3.27-1.86-.55-3.72-.66-5.59-.34-1.86,.32-3.7,.95-5.52,1.91-1.82,.95-3.45,2.11-4.9,3.47,2.09-3.72,4.24-7.38,6.47-10.96,2.22-3.59,4.31-6.9,6.27-9.94,1.95-3.04,3.74-5.67,5.38-7.9,1.63-2.22,2.9-3.84,3.81-4.83-.27-.64-.91-1.16-1.91-1.57s-2.13-.68-3.4-.82c-1.27-.14-2.52-.14-3.75,0-1.23,.14-2.25,.39-3.06,.75-2.09,1-3.74,2.16-4.97,3.47-1.23,1.32-2.57,2.88-4.02,4.7-1.36,1.63-2.99,3.88-4.9,6.74-1.91,2.86-3.9,6.02-5.99,9.47-2.09,3.45-4.2,7.06-6.33,10.83-2.13,3.77-4.11,7.38-5.92,10.83-1.82,3.45-3.43,6.58-4.84,9.4-1.24,2.47-2.12,4.42-2.69,5.91-1.75,3.17-3.61,6.23-5.62,9.14-2.22,3.22-4.75,6.33-7.56,9.33-.91,1-2,2.02-3.27,3.06-1.27,1.04-2.63,1.97-4.09,2.79-1.45,.82-2.93,1.39-4.43,1.7-1.5,.32-2.88,.16-4.16-.48-1.09-.54-1.97-1.77-2.66-3.68-.68-1.91-1.2-3.99-1.56-6.26-.36-2.27-.59-4.45-.68-6.54-.09-2.09-.05-3.54,.14-4.36,1.36-.27,2.68-.61,3.95-1.02,1.27-.41,2.54-.84,3.81-1.29,2.27-1,4.54-2.25,6.81-3.74,2.27-1.5,4.36-3.22,6.27-5.18,1.91-1.95,3.56-4.06,4.97-6.33,1.41-2.27,2.38-4.63,2.93-7.08,.45-2.36,.43-4.75-.07-7.15-.5-2.41-1.66-4.38-3.47-5.92-1.36-1.27-2.97-2-4.83-2.18-1.86-.18-6.59,.2-13.48,3.27-.78,.35-1.3,.64-1.57,.82-3.18,1.82-6.42,4.18-9.74,7.08-3.32,2.91-6.24,5.67-8.79,8.31,1.82-2.99,3.93-6.31,6.33-9.94,2.41-3.63,4.52-6.95,6.33-9.94,1.27-2.18,2.59-4.34,3.95-6.47,1.36-2.13,2.59-4.33,3.68-6.61,1.18-2.36,1.75-4.38,1.7-6.06-.05-1.68-.29-2.97-.75-3.88-.73-1.18-1.63-2.13-2.72-2.86s-2.13-1.32-3.13-1.77c-1.18-.45-2.41-.77-3.68-.95-1.45,2.63-2.77,5.13-3.95,7.49-1.09,2.09-2.16,4.13-3.2,6.13-1.04,2-1.89,3.5-2.52,4.49l-8.17,13.89-9.67,16.89c-2.64,4.63-5.13,9.29-7.49,13.96-.71,1.4-1.38,2.84-2.06,4.26-1.64,2.77-3.44,5.46-5.43,8.06-2.91,3.81-5.67,6.9-8.31,9.26-2.36,2.09-4.52,3.5-6.47,4.22s-3.52,.8-4.7,.2c-1.18-.59-1.86-1.86-2.04-3.81-.18-1.95,.32-4.52,1.5-7.69,1.63-4.36,4.09-9.08,7.35-14.17,3.27-5.08,6.63-9.85,10.08-14.3,2.09-2.18,2.88-4.52,2.38-7.01-.5-2.5-2.57-5.15-6.2-7.97-1.54-1.27-2.86-1.57-3.95-.89-1.09,.68-2.27,1.93-3.54,3.75-2,.64-4.18,1.04-6.54,1.23h-2.25c-.86,0-1.61-.18-2.25-.55,.73-1.82,1.23-3.65,1.5-5.52,.27-1.86-.36-3.29-1.91-4.29-1.36-.91-2.72-1.04-4.09-.41-1.36,.64-2.47,1.72-3.34,3.27-.86,1.54-1.39,3.36-1.57,5.45-.18,2.09,.27,4.18,1.36,6.27-3.09,8.35-5.9,16.62-11.3,23.49-5.41,6.88-10.99,8.2-13.89,7.01,1.72-3.81,3-7.83,3.81-12.05s.77-8.33-.14-12.33c-.64-2.45-1.77-4.77-3.41-6.95-1.63-2.18-3.77-3.54-6.4-4.09-1.72-.27-3.18-.18-4.36,.27l-.41-.27c-1.45-.72-3.06-1.2-4.84-1.43-1.77-.23-3.43-.25-4.97-.07-3.09,.27-6.02,1.14-8.79,2.59-2.77,1.45-5.29,3.22-7.56,5.31-2.27,2.18-4.31,4.63-6.13,7.35-1.82,2.72-3.34,5.63-4.56,8.72-1.23,3.09-2.11,6.24-2.66,9.47-.54,3.22-.68,6.42-.41,9.6,.27,2.82,.95,5.5,2.04,8.04,1.09,2.54,2.54,4.79,4.36,6.74,1.82,1.95,3.95,3.45,6.4,4.49,2.45,1.04,5.17,1.48,8.17,1.3,2.45-.18,4.79-.75,7.01-1.7,2.22-.95,4.29-2.15,6.2-3.61,1.91-1.45,3.7-3.11,5.38-4.97,1.68-1.86,3.25-3.74,4.7-5.65,.9,2.81,15.86-2.28,22.01-10.21,3.44-4.44,3.36-4.5,5.09-7.76,2.09-3.81,3.9-7.51,5.45-11.1,1.54-3.58,2.81-6.7,3.81-9.33,1.27,.54,2.54,.98,3.81,1.29s2.32,.52,3.13,.61c.27,.09,.77,.14,1.5,.14-2.54,3.27-5.17,7.26-7.9,11.98-2.72,4.72-4.99,9.49-6.81,14.3-1.54,4-2.27,7.56-2.18,10.69,.09,3.13,.77,5.77,2.04,7.9,1.27,2.14,3,3.75,5.18,4.84,2.18,1.09,4.63,1.54,7.35,1.36,2.72-.18,5.58-.98,8.58-2.38,2.99-1.41,5.95-3.56,8.85-6.47,.85-.85,1.66-1.7,2.45-2.57-.1,.47-.2,.92-.28,1.35-.18,1-.23,1.73-.14,2.18,.18,2.18,1.18,4.09,3,5.72,1.82,1.63,3.77,2.5,5.86,2.59,.54-1,1.29-2.41,2.25-4.22,.95-1.82,1.91-3.65,2.86-5.52,.95-1.86,1.82-3.56,2.59-5.11,.77-1.54,1.3-2.54,1.57-3,3.9-6.81,8.22-13.26,12.94-19.34,2.09-2.81,4.27-5.54,6.54-8.17s4.68-5.18,7.22-7.63c1.09-1,2.36-2.11,3.81-3.34,1.45-1.23,2.97-2.36,4.56-3.41,1.59-1.04,3.15-1.98,4.7-2.79,1.54-.82,2.9-1.31,4.09-1.5,.45,2,.27,4.04-.55,6.13-.82,2.09-1.93,4.07-3.34,5.92-1.41,1.86-2.93,3.54-4.56,5.04s-3.04,2.66-4.22,3.47c-2,1.36-4.45,2.68-7.35,3.95-2.91,1.27-5.81,2.27-8.72,3-.09,.09-.23,.66-.41,1.7-.18,1.04-.36,2.2-.55,3.47-.18,1.27-.36,2.52-.54,3.75-.18,1.23-.27,2.07-.27,2.52-.18,2.09-.25,4.18-.2,6.27,.05,2.09,.29,4.13,.75,6.13,.45,2,1.14,3.93,2.04,5.79,.91,1.86,2.13,3.52,3.68,4.97,2.36,2.36,5.13,3.75,8.31,4.16,3.18,.41,6.26-.02,9.26-1.3,3.54-1.54,6.79-3.68,9.74-6.4,2.95-2.72,5.6-5.54,7.97-8.44,1.38-1.76,2.68-3.54,3.95-5.33-.11,1.81-.11,3.62,.07,5.4,.23,2.23,.84,4.38,1.84,6.47,1.45,3.18,3.31,5.45,5.58,6.81,2.27,1.36,4.7,2.09,7.29,2.18,2.59,.09,5.27-.34,8.04-1.3,2.77-.95,5.45-2.2,8.04-3.74,2.59-1.54,5.02-3.25,7.29-5.11,2.27-1.86,4.18-3.61,5.72-5.24l2.45-2.72c5.99-.82,11.28-2.66,15.87-5.52,.7-.44,1.33-.94,1.99-1.42-.07,.77-.13,1.54-.15,2.3-.18,4.09,.66,8.01,2.52,11.78,1.86,3.77,4.52,6.83,7.97,9.19,4.54,2.9,9.99,3.45,16.34,1.63,6.35-1.82,12.8-5.45,19.34-10.9,2-1.73,3.91-3.55,5.75-5.43-.3,1.08-.61,2.16-.85,3.25-.18,.82-.02,1.75,.48,2.79,.5,1.04,1.18,2.02,2.04,2.93,.86,.91,1.84,1.68,2.93,2.31,1.09,.64,2.18,.95,3.27,.95,1.45,.09,2.59-.48,3.4-1.7,.82-1.23,1.5-2.25,2.04-3.06,1-1.82,2.04-3.61,3.13-5.38,1.09-1.77,2.22-3.56,3.4-5.38,2.36-3.54,4.77-7.01,7.22-10.42,2.45-3.41,5.04-6.74,7.76-10.01,2.09-2.54,4.65-5.22,7.69-8.04,3.04-2.81,5.88-5.27,8.51-7.35-2,4.09-4.2,8.01-6.61,11.78-2.41,3.77-4.52,7.7-6.33,11.78-.82,2.09-1.66,4.36-2.52,6.81-.86,2.45-1.5,4.95-1.91,7.49-.41,2.54-.43,4.99-.07,7.35,.36,2.36,1.36,4.45,2.99,6.27,1.91,2.27,4.04,3.65,6.4,4.15,2.36,.5,4.72,.45,7.08-.14s4.68-1.59,6.95-2.99c2.27-1.41,4.27-2.93,5.99-4.56,3.99-3.81,7.58-8.01,10.76-12.6,.54-.79,1.04-1.63,1.58-2.43-.08,3.28,.32,6.19,1.22,8.7,1.68,4.68,4.43,7.95,8.24,9.81,3.81,1.86,8.33,2.34,13.55,1.43,5.22-.91,10.51-3.27,15.87-7.08,1.88-1.36,3.64-2.8,5.35-4.28-.44,1.12-.85,2.22-1.19,3.25-.77,2.31-1.02,4.02-.75,5.11,.09,.46,.32,1.04,.68,1.77,.36,.73,.84,1.43,1.43,2.11,.59,.68,1.29,1.25,2.11,1.7,.82,.45,1.72,.68,2.72,.68,3.9-5.81,8.17-11.46,12.8-16.96,4.63-5.49,9.08-10.53,13.35-15.12,4.27-4.58,8.08-8.49,11.44-11.71,3.36-3.22,5.77-5.47,7.22-6.74,.63-.55,1.25-1.09,1.84-1.63,.59-.55,1.25-1.04,1.97-1.5-2.91,4.63-5.77,9.31-8.58,14.03-2.81,4.72-5.13,9.67-6.95,14.85-.73,2-1.25,4.11-1.56,6.33-.32,2.23-.3,4.4,.07,6.54,.36,2.13,1.16,4.07,2.38,5.79,1.23,1.73,3.02,3.04,5.38,3.95,1.09,.45,2.34,.7,3.74,.75,1.41,.05,2.84-.05,4.29-.27,1.45-.23,2.84-.59,4.16-1.09,1.31-.5,2.38-1.11,3.2-1.84,4.63-3.45,9.06-7.9,13.28-13.35,4.22-5.45,7.92-11.26,11.1-17.43-.09-2.63-1.55-3.36-4.36-2.18Zm-224.66-9.26c2.77-3.72,5.83-7.04,9.19-9.94,.54-.45,1.36-1.04,2.45-1.77,1.09-.73,2.22-1.32,3.4-1.77,1.18-.45,2.22-.59,3.13-.41,.91,.18,1.36,1,1.36,2.45,.18,2.64-.5,5.04-2.04,7.22-1.54,2.18-3.22,4.09-5.04,5.72-2.09,2-4.41,3.7-6.95,5.11-2.54,1.41-5.18,2.61-7.9,3.61-1.72,.64-3.27,1.14-4.63,1.5,1.91-4.09,4.24-7.99,7.02-11.71Zm-227.32,4.36c-.14,2.64-.57,5.18-1.29,7.63-.78,2.39-4.8,12.15-9.13,16.48-2.72,3.18-5.58,5.29-8.58,6.33-3,1.04-5.63,.98-7.9-.2-1.91-.91-3.22-2.43-3.95-4.56-.73-2.13-1.02-4.59-.88-7.35,.13-2.77,.68-5.7,1.63-8.79,.95-3.09,2.18-6.06,3.68-8.92,1.5-2.86,3.25-5.45,5.24-7.76,2-2.31,4.13-4.06,6.4-5.24,1.36-.73,2.77-1.27,4.22-1.63,1.45-.36,3-.5,4.63-.41,1.27,.91,2.34,1.84,3.2,2.79,.86,.95,1.52,2.2,1.97,3.75,.64,2.63,.89,5.27,.75,7.9Zm183.94-2.04c-.91,3.36-1.95,6.49-3.13,9.4-2.81,5.68-6.17,11.85-9.81,15.94l-1.63,1.5c-.82,.73-2.02,1.56-3.61,2.52-1.59,.95-3.22,1.72-4.9,2.31-1.68,.59-3.27,.77-4.77,.55-1.5-.23-2.57-1.16-3.2-2.79-.55-1.45-.77-2.99-.68-4.63s.34-3.25,.75-4.84c.41-1.59,.93-3.16,1.57-4.7,.63-1.54,1.23-3,1.77-4.36,.82-2.09,1.63-4.13,2.45-6.13,.82-2,1.68-4.04,2.59-6.13,2.63-4,5.81-7.45,9.53-10.35,1.18-.91,2.54-1.72,4.09-2.45,1.54-.73,3.02-1.11,4.43-1.16,1.41-.04,2.63,.32,3.68,1.09,1.04,.77,1.66,2.25,1.84,4.43,.27,3.18-.05,6.45-.95,9.81Z"/></g></g></g></svg>